# xmcd CD database file
#
# Track frame offsets:
#	150
#	16501
#	36034
#	61882
#	79686
#	100683
#	119133
#	135451
#	147362
#	161308
#	179326
#	197548
#	216411
#	229163
#	241990
#	255114
#	267681
#	280246
#	300837
#
# Disc length: 4178 seconds
#
# Revision: 1
# Processed by: cddbd v1.4PL0 Copyright (c) Steve Scherf et al.
# Submitted via: CDex 1.50beta9
#
DISCID=fb105013
DTITLE=Teddy Wilson - The Complete Verve Recordings Of The Teddy Wilson Trio, Disc 4
DYEAR=1957
DGENRE=Jazz
TTITLE0=Poor Butterfly
TTITLE1=Rosetta
TTITLE2=Basin Street Blues
TTITLE3=How Deep Is The Ocean
TTITLE4=Just One Of Those Things
TTITLE5=Have You Met Miss Jones
TTITLE6=It Don't Mean A Thing
TTITLE7=Avalon
TTITLE8=The Little Things That Mean So Much
TTITLE9='S Wonderful
TTITLE10=Someone To Watch Over Me
TTITLE11=Jeepers Creepers
TTITLE12=If You Are But A Dream
TTITLE13=Bye Bye Blues
TTITLE14=Sunny Morning
TTITLE15=Talking To The Moon
TTITLE16=Dream House
TTITLE17=Sometimes I'm Happy
TTITLE18=That Old Feeling
EXTD=YEAR: 1957
EXTT0=
EXTT1=
EXTT2=
EXTT3=
EXTT4=
EXTT5=
EXTT6=
EXTT7=
EXTT8=
EXTT9=
EXTT10=
EXTT11=
EXTT12=
EXTT13=
EXTT14=
EXTT15=
EXTT16=
EXTT17=
EXTT18=
PLAYORDER=
